<svg preserveAspectRatio="none" overflow="visible" style="display: block;" width="69.0001" height="66.3635" viewBox="0 0 69.0001 66.3635" fill="none" xmlns="http://www.w3.org/2000/svg">
<g id="Frame 1">
<path id="mark" d="M26.6484 42.5985L49.5876 25.6134C50.7123 24.7808 52.3197 25.1055 52.8556 26.399C55.6758 33.2201 54.4158 41.4174 48.8045 47.0457C43.1935 52.6737 35.3861 53.908 28.25 51.0969L20.4545 54.7173C31.6356 62.3828 45.213 60.4871 53.6975 51.9711C60.4274 45.2207 62.5117 36.0194 60.5628 27.7219L60.5804 27.7395C57.7541 15.55 61.2753 10.6777 68.4879 0.71466C68.6585 0.47843 68.8293 0.242197 69.0001 5.98738e-05L59.5087 9.52019V9.49066L26.6426 42.6045" fill="black"/>
<path id="mark_2" d="M21.9149 46.7268C13.8896 39.0373 15.2733 27.1371 22.1209 20.2748C27.1844 15.1957 35.4805 13.1228 42.7225 16.1702L50.5005 12.5677C49.0993 11.5519 47.3033 10.4593 45.2426 9.69153C35.928 5.84687 24.7763 7.76033 17.2045 15.3493C9.92117 22.6547 7.63078 33.8875 11.5639 43.4727C14.5019 50.6364 9.68564 55.7035 4.83402 60.818C3.11475 62.631 1.3896 64.4441 6.10352e-05 66.3635L21.9089 46.7326" fill="black"/>
</g>
</svg>
